<?xml version="1.0" encoding="UTF-8" standalone="no"?>
<!DOCTYPE svg PUBLIC "-//W3C//DTD SVG 1.1//EN" "http://www.w3.org/Graphics/SVG/1.1/DTD/svg11.dtd">
<svg width="100%" height="100%" viewBox="0 0 1024 1024" version="1.1" xmlns="http://www.w3.org/2000/svg" xmlns:xlink="http://www.w3.org/1999/xlink" xml:space="preserve" xmlns:serif="http://www.serif.com/" style="fill-rule:evenodd;clip-rule:evenodd;stroke-linejoin:round;stroke-miterlimit:2;">
    <g id="V2" transform="matrix(3.79472,0,0,3.79472,-1572.82,-1431.4)">
        <g transform="matrix(1.56806,0,0,1.56806,497.563,567.367)">
            <g id="Semibold-L">
                <path d="M78.356,-6.656C80.196,-6.656 81.66,-7.207 82.748,-8.31C83.837,-9.413 84.381,-11.021 84.381,-13.134L84.381,-57.465C84.381,-59.471 83.78,-61.055 82.577,-62.218C81.374,-63.382 79.763,-63.963 77.742,-63.963C75.321,-63.963 72.778,-63.066 70.112,-61.27L59.083,-53.902C57.451,-52.806 56.634,-51.4 56.634,-49.683C56.634,-48.521 57.022,-47.509 57.796,-46.647C58.571,-45.784 59.547,-45.353 60.724,-45.353C61.268,-45.353 61.769,-45.423 62.23,-45.562C62.69,-45.701 63.28,-46.018 63.998,-46.513L71.893,-51.702L72.393,-51.702L72.393,-13.134C72.393,-11.021 72.927,-9.413 73.995,-8.31C75.063,-7.207 76.517,-6.656 78.356,-6.656Z" style="fill:white;fill-rule:nonzero;"/>
            </g>
        </g>
        <g id="Black-M" transform="matrix(1,0,0,1,448.133,547.23)">
            <path d="M43.926,-80.16L22.115,-80.16C19.396,-80.16 17.108,-79.252 15.249,-77.435C13.39,-75.618 12.461,-73.392 12.461,-70.757C12.461,-68.08 13.381,-65.842 15.22,-64.044C17.06,-62.246 19.358,-61.347 22.115,-61.347L39.767,-61.347C40.216,-61.347 40.608,-61.256 40.943,-61.074C41.277,-60.891 41.536,-60.615 41.72,-60.245L72.061,0.704C73.669,3.903 75.548,6.203 77.699,7.602C79.85,9.002 82.568,9.701 85.853,9.701L107.727,9.701C110.442,9.701 112.729,8.792 114.59,6.973C116.451,5.155 117.381,2.929 117.381,0.298C117.381,-2.376 116.46,-4.612 114.619,-6.412C112.778,-8.212 110.48,-9.112 107.727,-9.112L90.028,-9.112C89.078,-9.112 88.42,-9.48 88.053,-10.216L57.78,-71.108C56.298,-74.057 54.378,-76.302 52.023,-77.846C49.667,-79.389 46.968,-80.16 43.926,-80.16ZM107.727,-80.16L80.516,-80.16C77.797,-80.16 75.509,-79.253 73.652,-77.438C71.796,-75.623 70.867,-73.398 70.867,-70.762C70.867,-68.085 71.786,-65.849 73.624,-64.052C75.462,-62.256 77.759,-61.359 80.516,-61.359L107.727,-61.359C110.484,-61.359 112.781,-62.256 114.619,-64.052C116.456,-65.849 117.375,-68.085 117.375,-70.762C117.375,-73.436 116.456,-75.67 114.619,-77.466C112.781,-79.262 110.484,-80.16 107.727,-80.16Z" style="fill:white;fill-rule:nonzero;"/>
        </g>
    </g>
</svg>
