<?xml version="1.0" encoding="UTF-8" standalone="no"?>
<!DOCTYPE svg PUBLIC "-//W3C//DTD SVG 1.1//EN" "http://www.w3.org/Graphics/SVG/1.1/DTD/svg11.dtd">
<svg width="100%" height="100%" viewBox="0 0 1024 1024" version="1.1" xmlns="http://www.w3.org/2000/svg" xmlns:xlink="http://www.w3.org/1999/xlink" xml:space="preserve" xmlns:serif="http://www.serif.com/" style="fill-rule:evenodd;clip-rule:evenodd;stroke-linejoin:round;stroke-miterlimit:2;">
    <g id="Bold-M" transform="matrix(4.36011,0,0,4.36011,85.6691,665.104)">
        <path d="M42.255,-80.068L19.588,-80.068C17.579,-80.068 15.889,-79.401 14.518,-78.068C13.147,-76.735 12.461,-75.102 12.461,-73.17C12.461,-71.203 13.142,-69.558 14.504,-68.234C15.865,-66.91 17.56,-66.248 19.588,-66.248L39.146,-66.248C39.8,-66.248 40.372,-66.1 40.864,-65.805C41.355,-65.509 41.74,-65.068 42.019,-64.481L73.25,2.097C74.513,4.733 76.061,6.645 77.892,7.83C79.724,9.016 82.022,9.609 84.789,9.609L107.639,9.609C109.625,9.609 111.309,8.937 112.69,7.595C114.071,6.252 114.761,4.624 114.761,2.711C114.761,0.763 114.075,-0.878 112.704,-2.211C111.333,-3.544 109.644,-4.211 107.639,-4.211L87.984,-4.211C86.56,-4.211 85.567,-4.79 85.007,-5.947L53.867,-72.486C52.71,-74.901 51.127,-76.768 49.118,-78.088C47.108,-79.408 44.821,-80.068 42.255,-80.068ZM107.639,-80.068L78.223,-80.068C76.215,-80.068 74.53,-79.406 73.168,-78.082C71.806,-76.759 71.125,-75.131 71.125,-73.198C71.125,-71.231 71.801,-69.591 73.153,-68.277C74.506,-66.963 76.196,-66.306 78.223,-66.306L107.639,-66.306C109.664,-66.306 111.352,-66.963 112.704,-68.277C114.056,-69.591 114.732,-71.231 114.732,-73.198C114.732,-75.15 114.056,-76.782 112.704,-78.097C111.352,-79.411 109.664,-80.068 107.639,-80.068Z" style="fill:white;fill-rule:nonzero;"/>
    </g>
    <g transform="matrix(6.82573,0,0,6.82573,310.77,752.647)">
        <g id="Regular-L">
            <path d="M76.571,-6.688C77.938,-6.688 79.007,-7.12 79.778,-7.985C80.548,-8.851 80.934,-10.034 80.934,-11.536L80.934,-59.092C80.934,-60.648 80.525,-61.85 79.708,-62.698C78.89,-63.547 77.754,-63.971 76.3,-63.971C74.516,-63.971 72.591,-63.251 70.525,-61.81L58.717,-53.885C57.566,-53.085 56.991,-52.059 56.991,-50.807C56.991,-49.953 57.287,-49.186 57.879,-48.507C58.471,-47.827 59.211,-47.488 60.099,-47.488C60.516,-47.488 60.915,-47.545 61.296,-47.659C61.676,-47.773 62.14,-48.026 62.686,-48.417L71.836,-54.411L72.289,-54.411L72.289,-11.536C72.289,-10.034 72.666,-8.851 73.42,-7.985C74.174,-7.12 75.224,-6.688 76.571,-6.688Z" style="fill:white;fill-rule:nonzero;"/>
        </g>
    </g>
</svg>
